<?xml version="1.0" encoding="UTF-8" standalone="no"?>
<!-- Created with Inkscape (http://www.inkscape.org/) -->

<svg
   width="207mm"
   height="169.00101mm"
   viewBox="0 0 207 169.00101"
   version="1.1"
   id="svg5"
   xml:space="preserve"
   inkscape:version="1.2.1 (9c6d41e410, 2022-07-14)"
   sodipodi:docname="Test.svg"
   xmlns:inkscape="http://www.inkscape.org/namespaces/inkscape"
   xmlns:sodipodi="http://sodipodi.sourceforge.net/DTD/sodipodi-0.dtd"
   xmlns:xlink="http://www.w3.org/1999/xlink"
   xmlns="http://www.w3.org/2000/svg"
   xmlns:svg="http://www.w3.org/2000/svg"><sodipodi:namedview
     id="namedview7"
     pagecolor="#ffffff"
     bordercolor="#666666"
     borderopacity="1.0"
     inkscape:showpageshadow="2"
     inkscape:pageopacity="0.0"
     inkscape:pagecheckerboard="0"
     inkscape:deskcolor="#d1d1d1"
     inkscape:document-units="mm"
     showgrid="false"
     showguides="true"
     inkscape:zoom="1.4770342"
     inkscape:cx="328.69923"
     inkscape:cy="479.33893"
     inkscape:window-width="2560"
     inkscape:window-height="1369"
     inkscape:window-x="-8"
     inkscape:window-y="-8"
     inkscape:window-maximized="1"
     inkscape:current-layer="layer2"><inkscape:grid
       type="xygrid"
       id="grid1321"
       originx="0"
       originy="0" /></sodipodi:namedview><defs
     id="defs2" /><g
     inkscape:label="Reference"
     inkscape:groupmode="layer"
     id="layer1"
     style="display:none"><image
       width="209.931"
       height="297.05298"
       preserveAspectRatio="none"
       xlink:href="../Documents/GitHub/WEB/logo.png"
       id="image17"
       x="-18.447178"
       y="24.366129" /></g><g
     id="layer2"
     inkscape:label="Normal"
     inkscape:groupmode="layer"
     transform="translate(-7.346575,-0.50666035)"><g
       id="g1111"
       inkscape:label="Eyes"
       transform="translate(-2.0266414,-61.812564)"><path
         style="fill:none;stroke:#ffffff;stroke-width:2;stroke-linecap:round;stroke-linejoin:round;stroke-dasharray:none;stroke-opacity:1"
         d="m 127.23508,100.31875 c 0,0 6.90324,-5.4466 14.50315,-7.536575"
         id="path1108"
         inkscape:label="RightEyebrow" /><path
         style="fill:none;stroke:#ffffff;stroke-width:2;stroke-linecap:round;stroke-linejoin:round;stroke-dasharray:none;stroke-opacity:1"
         d="m 141.9617,97.17883 c 0,0 -7.07569,2.8661 -13.70356,10.12093 0,0 7.97135,2.50784 13.97226,7.16526"
         id="path305"
         inkscape:label="RightEye" /><path
         style="fill:none;stroke:#ffffff;stroke-width:2;stroke-linecap:round;stroke-linejoin:round;stroke-dasharray:none;stroke-opacity:1"
         d="m 72.695717,107.10976 c 0,0 7.812856,2.13778 15.494872,5.19481 0,0 -9.269509,8.43718 -13.345297,12.8079"
         id="path1116"
         inkscape:label="LeftEye"
         sodipodi:nodetypes="ccc" /><path
         style="fill:none;stroke:#ffffff;stroke-width:2;stroke-linecap:round;stroke-linejoin:round;stroke-dasharray:none;stroke-opacity:1"
         d="m 70.362455,101.64873 c 4.813273,0.69666 10.386536,2.78663 14.18649,5.00327"
         id="path1273"
         inkscape:label="LeftEyebrow" /></g><g
       id="g1280"
       inkscape:label="Mouth"
       transform="translate(-2.0266414,-61.812564)"><path
         style="fill:none;stroke:#ffffff;stroke-width:2;stroke-linecap:round;stroke-linejoin:round;stroke-dasharray:none;stroke-opacity:1"
         d="m 95.924909,116.25633 c 0,0 16.838361,-2.77654 18.987931,-2.8661 0.2496,2.95036 0.0896,18.89837 -7.52352,20.60012 -7.613084,1.70175 -11.10615,-10.65833 -11.464411,-17.73402 z"
         id="path1122"
         inkscape:label="Mouth"
         sodipodi:nodetypes="ccsc" /><path
         style="fill:none;stroke:#ffffff;stroke-width:2;stroke-linecap:round;stroke-linejoin:round;stroke-dasharray:none;stroke-opacity:1"
         d="m 96.202134,119.50851 c 0,0 8.613226,-2.02664 15.453136,-2.97663 0,0 0.82333,9.75321 -2.1533,16.59312"
         id="path1276"
         inkscape:label="Mouth Tounge" /></g><g
       id="g1288"
       inkscape:label="Hand"
       transform="translate(-2.0266414,-61.812564)"><path
         style="fill:none;stroke:#ffffff;stroke-width:2;stroke-linecap:round;stroke-linejoin:round;stroke-dasharray:none;stroke-opacity:1"
         d="m 66.055842,142.24489 c 2.533301,9.94321 5.509932,21.34307 13.679829,19.56976 8.169899,-1.77331 4.813274,-15.45314 1.963309,-22.92638"
         id="path1282"
         inkscape:label="LeftHand" /><path
         style="fill:none;stroke:#ffffff;stroke-width:2;stroke-linecap:round;stroke-linejoin:round;stroke-dasharray:none;stroke-opacity:1"
         d="m 131.84077,139.45386 c 3.1348,15.31574 5.73221,24.00362 12.98703,23.64535 7.25483,-0.35826 8.15048,-14.33051 4.83655,-25.79493"
         id="path1284"
         inkscape:label="RightHand" /></g><g
       id="g1306"
       inkscape:label="Body"
       transform="translate(-2.0266414,-61.812564)"><path
         style="fill:none;stroke:#ffffff;stroke-width:2;stroke-linecap:round;stroke-linejoin:round;stroke-dasharray:none;stroke-opacity:1"
         d="m 54.782651,155.73472 c 4.369945,-13.0465 0.569991,-25.14302 0.569991,-25.14302 0,0 -5.826593,-21.2164 3.039962,-27.35966 0,0 -2.414016,-16.174139 -22.476743,-35.430773 0,0 20.600123,0.80609 37.348914,20.420988 0,0 49.350725,-16.032268 70.756935,-6.717432 0,0 18.99626,-21.212243 44.5826,-15.258983 0,0 -15.9598,6.459918 -21.53306,22.293056 0,0 5.69993,17.099784 -2.65997,32.299594 0,0 -6.20659,11.01986 -4.93994,25.96634"
         id="path1292"
         inkscape:label="Top Body" /><path
         style="fill:none;stroke:#ffffff;stroke-width:2;stroke-linecap:round;stroke-linejoin:round;stroke-dasharray:none;stroke-opacity:1"
         d="m 160.168,151.87144 c 2.3433,11.58985 3.60995,15.00981 5.88993,18.4931 2.27997,3.48329 14.94648,34.51624 -9.68988,43.95278"
         id="path1294"
         inkscape:label="Right Body" /><path
         style="fill:none;stroke:#ffffff;stroke-width:2;stroke-linecap:round;stroke-linejoin:round;stroke-dasharray:none;stroke-opacity:1"
         d="m 100.40319,216.39083 c 6.89656,0.98522 17.64446,0.71652 22.66014,-0.17913"
         id="path1296"
         inkscape:label="Bot Body"
         sodipodi:nodetypes="cc" /><path
         style="fill:none;stroke:#ffffff;stroke-width:2;stroke-linecap:round;stroke-linejoin:round;stroke-dasharray:none;stroke-opacity:1"
         d="m 52.664656,161.75573 c -5.553075,13.43486 -4.352472,21.17905 -3.582631,28.03408 1.240257,11.04384 7.668966,26.33232 20.868817,28.03407"
         id="path1300"
         inkscape:label="Left Body"
         sodipodi:nodetypes="csc" /></g><g
       id="g1314"
       inkscape:label="Parts"
       transform="translate(-2.0266414,-61.812564)"><path
         style="fill:none;stroke:#ffffff;stroke-width:2;stroke-linecap:round;stroke-linejoin:round;stroke-dasharray:none;stroke-opacity:1"
         d="m 97.089263,190.41676 c 15.315747,-2.68697 21.854037,-2.95566 31.437577,-2.23914"
         id="path1323"
         inkscape:label="Belly Down" /><path
         style="fill:none;stroke:#ffffff;stroke-width:2;stroke-linecap:round;stroke-linejoin:round;stroke-dasharray:none;stroke-opacity:1"
         d="m 93.148371,175.28015 c 17.913149,-2.95566 27.227989,-3.67219 41.468939,-1.25391"
         id="path1316"
         inkscape:label="Belly Up" /><path
         style="fill:none;stroke:#ffffff;stroke-width:2;stroke-linecap:round;stroke-linejoin:round;stroke-dasharray:none;stroke-opacity:1"
         d="m 70.040409,217.91345 c 0.985224,-6.807 7.813092,-9.22212 15.58444,-9.85223 9.941798,-0.80609 15.136611,1.97044 14.688781,7.79222 -0.44909,5.83818 -4.620481,10.51748 -14.420084,11.55398 -9.314837,0.98522 -16.569663,-0.44783 -15.853137,-9.49397 z"
         id="path1308"
         inkscape:label="Left Foot"
         sodipodi:nodetypes="csssc" /><path
         style="fill:none;stroke:#ffffff;stroke-width:2;stroke-linecap:round;stroke-linejoin:round;stroke-dasharray:none;stroke-opacity:1"
         d="m 122.8842,216.56996 c 0.80609,-5.73221 5.16394,-9.30451 16.21139,-8.95657 11.37485,0.35826 16.83519,1.52278 17.10706,6.62786 0.40305,7.56831 -7.21227,10.59006 -16.07704,10.07615 -6.18005,-0.35827 -17.37576,-1e-5 -17.24141,-7.74744 z"
         id="path1310"
         inkscape:label="Right Foot"
         sodipodi:nodetypes="csssc" /><g
         id="g2094"
         inkscape:label="Tail"><path
           style="fill:none;stroke:#ffffff;stroke-width:2;stroke-linecap:round;stroke-linejoin:round;stroke-dasharray:none;stroke-opacity:1"
           d="m 169.73121,180.62441 c 13.04651,-13.29983 16.59313,-24.19303 14.69316,-39.64617"
           id="path1326"
           inkscape:label="Tail Left" /><path
           style="fill:none;stroke:#ffffff;stroke-width:2;stroke-linecap:round;stroke-linejoin:round;stroke-dasharray:none;stroke-opacity:1"
           d="m 171.2512,194.8109 c 17.60644,-17.98644 26.21967,-26.97966 23.9397,-57.12595"
           id="path1328"
           inkscape:label="Tail Right" /><path
           style="fill:none;stroke:#ffffff;stroke-width:2;stroke-linecap:round;stroke-linejoin:round;stroke-dasharray:none;stroke-opacity:1"
           d="m 183.7889,135.78166 c -0.94044,-5.50829 -2.32871,-7.79222 -3.94089,-12.44964 -1.61219,-4.65741 -6.89657,-32.512358 16.12183,-37.259343 23.0184,-4.746984 16.4801,11.643545 15.58444,13.613993 -0.89566,1.97045 -3.76176,8.24005 -8.06092,5.46351 -4.29915,-2.77654 -1.67582,-6.5864 -0.98522,-7.433958 1.97045,-2.418275 4.20959,-7.254824 -5.01568,-3.403496 -9.22527,3.851325 -10.47919,10.389624 -9.22527,18.092284 1.25392,7.70265 5.10524,10.03136 6.18003,20.86881"
           id="path1332"
           sodipodi:nodetypes="csssssssc"
           inkscape:label="Tail" /></g><g
         id="g2127"
         inkscape:label="Left"><path
           style="fill:none;stroke:#ffffff;stroke-width:2;stroke-linecap:round;stroke-linejoin:round;stroke-dasharray:none;stroke-opacity:1"
           d="m 84.738942,149.5598 c 0,0 3.142368,-0.52258 4.369945,-1.04499 0.326373,-1.4328 2.026643,-7.47324 8.1699,-8.23323 0,0 1.456647,7.66324 1.646645,15.38981 0,0 -5.889927,1.32998 -8.296564,-2.5333 0,0 -4.179948,0.94999 -5.699929,1.07665"
           id="path2096"
           sodipodi:nodetypes="cccccc"
           inkscape:label="Power Male" /><path
           style="fill:none;stroke:#ffffff;stroke-width:2;stroke-linecap:round;stroke-linejoin:round;stroke-dasharray:none;stroke-opacity:1"
           d="m 98.611882,150.87349 c 2.373488,-0.31348 3.806538,-0.44783 5.597858,-0.31348 0,0 0.17913,1.8985 0.13435,3.1348 0,0 -2.8885,-0.29109 -5.463513,0.15676"
           id="path2110"
           sodipodi:nodetypes="cccc"
           inkscape:label="Power Male Down" /><path
           style="fill:none;stroke:#ffffff;stroke-width:2;stroke-linecap:round;stroke-linejoin:round;stroke-dasharray:none;stroke-opacity:1"
           d="m 97.805789,143.5291 c 2.104795,-0.49261 4.970901,-0.62696 6.135251,-0.67174 0,0 0.22392,2.50784 0.2687,3.44828 0,0 -2.37349,-0.49261 -6.000906,0.40304"
           id="path2108"
           inkscape:label="Power Male Up" /><path
           style="fill:none;stroke:#ffffff;stroke-width:2;stroke-linecap:round;stroke-linejoin:round;stroke-dasharray:none;stroke-opacity:1"
           d="m 68.928521,152.57206 c -7.075694,0.98522 -18.771705,4.12321 -27.056537,7.48192 -7.586138,3.07546 -16.166616,7.25482 -29.064083,7.52352"
           id="path2129"
           inkscape:label="Power Up"
           sodipodi:nodetypes="csc" /><path
           style="fill:none;stroke:#ffffff;stroke-width:2;stroke-linecap:round;stroke-linejoin:round;stroke-dasharray:none;stroke-opacity:1"
           d="m 70.980849,156.87439 c -7.833435,1.33141 -20.052831,5.18114 -27.541465,8.19527 -5.913864,2.38029 -18.808805,7.79222 -30.362786,7.79222"
           id="path2132"
           inkscape:label="Power Down"
           sodipodi:nodetypes="csc" /></g><g
         id="g2122"
         inkscape:label="Right"><path
           style="fill:none;stroke:#ffffff;stroke-width:2;stroke-linecap:round;stroke-linejoin:round;stroke-dasharray:none;stroke-opacity:1"
           d="m 133.81122,148.14174 c -3.35872,-0.22392 -7.29961,-0.35827 -11.37485,-1.65697 0,0 -1.5674,-6.58308 -8.19527,-8.41918 0,0 0.44783,9.09092 -1.97044,18.36098 0,0 7.65787,-0.8061 10.38962,-5.10525 0,0 8.28483,1.79131 12.44964,1.74653"
           id="path2113"
           inkscape:label="Power Female" /><path
           style="fill:none;stroke:#ffffff;stroke-width:2;stroke-linecap:round;stroke-linejoin:round;stroke-dasharray:none;stroke-opacity:1"
           d="m 151.68144,148.13482 c 9.24655,-0.31666 17.04868,-4.85409 22.92638,-8.16991 6.96378,-3.9285 19.0631,-7.28323 30.14629,-7.91656"
           id="path2115"
           inkscape:label="Power Up"
           sodipodi:nodetypes="csc" /><path
           style="fill:none;stroke:#ffffff;stroke-width:2;stroke-linecap:round;stroke-linejoin:round;stroke-dasharray:none;stroke-opacity:1"
           d="m 151.36478,152.88476 c 9.11988,0 20.55637,-5.80038 25.58634,-8.42323 3.73853,-1.94943 13.17318,-7.53658 27.67632,-8.35989"
           id="path2117"
           inkscape:label="Power Down"
           sodipodi:nodetypes="csc" /></g></g></g></svg>
